<svg width="38" height="25" viewBox="0 0 38 25" fill="none" xmlns="http://www.w3.org/2000/svg">
<g clip-path="url(#clip0_643_1503)">
<path opacity="0.07" d="M35 0.160156H3C1.3 0.160156 0 1.46016 0 3.16016V21.1602C0 22.8602 1.4 24.1602 3 24.1602H35C36.7 24.1602 38 22.8602 38 21.1602V3.16016C38 1.46016 36.6 0.160156 35 0.160156Z" fill="black"/>
<path d="M35 1.16016C36.1 1.16016 37 2.06016 37 3.16016V21.1602C37 22.2602 36.1 23.1602 35 23.1602H3C1.9 23.1602 1 22.2602 1 21.1602V3.16016C1 2.06016 1.9 1.16016 3 1.16016H35Z" fill="black"/>
<path d="M8.971 10.4282L9.745 12.3042H8.203L8.971 10.4282ZM25.046 10.5062H22.069V11.3332H24.998V12.5722H22.075V13.4942H25.052V14.2332L27.129 11.9882L25.052 9.64816L25.046 10.5062ZM10.983 8.16616H14.978L15.865 10.1012L16.687 8.16016H27.057L28.135 9.35016L29.25 8.16016H34.013L30.494 12.0122L33.977 15.8402H29.143L28.065 14.6502L26.94 15.8402H10.03L9.536 14.6502H8.406L7.911 15.8402H4L7.286 8.16016H10.716L10.983 8.16616ZM19.646 9.24416H17.407L15.907 12.7802L14.282 9.24416H12.06V14.0542L10 9.24416H8.007L5.625 14.7562H7.18L7.674 13.5662H10.27L10.764 14.7562H13.484V10.8212L15.235 14.7622H16.425L18.165 10.8332V14.7632H19.623L19.647 9.24316L19.646 9.24416ZM28.986 12.0122L31.517 9.24416H29.695L28.094 10.9702L26.546 9.24416H20.652V14.7622H26.462L28.076 13.0242L29.624 14.7622H31.499L28.987 12.0122H28.986Z" fill="white"/>
</g>
<rect x="0.5" y="0.660156" width="37" height="23" rx="3.5" stroke="white"/>
<defs>
<clipPath id="clip0_643_1503">
<rect y="0.160156" width="38" height="24" rx="4" fill="white"/>
</clipPath>
</defs>
</svg>
