<svg width="38" height="25" viewBox="0 0 38 25" fill="none" xmlns="http://www.w3.org/2000/svg">
<g clip-path="url(#clip0_643_1484)">
<path d="M34.3874 0.160156H3.61312C3.48493 0.160156 3.35651 0.160156 3.22854 0.160836C3.1205 0.161742 3.01269 0.162874 2.90466 0.165818C2.66934 0.17216 2.43197 0.186203 2.1996 0.227877C1.96655 0.267804 1.74075 0.342231 1.52964 0.448704C1.10523 0.664567 0.76027 1.00953 0.544407 1.43394C0.437744 1.64513 0.363309 1.8711 0.32358 2.10435C0.281453 2.33695 0.267637 2.57409 0.261295 2.80918C0.258535 2.91712 0.256874 3.02509 0.256312 3.13306C0.255859 3.2608 0.255859 3.389 0.255859 3.51742V20.8027C0.255859 20.9311 0.255859 21.0591 0.256312 21.1875C0.256992 21.2953 0.258351 21.4033 0.261295 21.5114C0.267637 21.746 0.281679 21.9834 0.32358 22.2157C0.363227 22.449 0.437586 22.6749 0.544181 22.8861C0.651352 23.0971 0.791243 23.2897 0.958658 23.4569C1.12579 23.6244 1.31843 23.7643 1.52941 23.8714C1.7439 23.9808 1.96359 24.0503 2.19982 24.0927C2.43197 24.1341 2.66934 24.1482 2.90466 24.1545C3.01269 24.157 3.1205 24.1583 3.22854 24.159C3.35651 24.1599 3.48493 24.1599 3.61312 24.1599H34.3874C34.5154 24.1599 34.6438 24.1599 34.7718 24.159C34.8796 24.1586 34.9874 24.157 35.0959 24.1545C35.3308 24.1482 35.5681 24.1341 35.801 24.0927C36.0341 24.0527 36.2599 23.9781 36.4709 23.8714C36.8951 23.6552 37.24 23.3103 37.4561 22.8861C37.5655 22.6717 37.6348 22.452 37.6767 22.2157C37.7189 21.9834 37.7325 21.746 37.7388 21.5114C37.7417 21.4033 37.7433 21.2953 37.7438 21.1875C37.7447 21.0591 37.7447 20.9311 37.7447 20.8027V3.51764C37.7447 3.38922 37.7447 3.26103 37.7438 3.13284C37.7433 3.02494 37.7417 2.91704 37.7388 2.80918C37.7325 2.57409 37.7189 2.33695 37.6767 2.10435C37.6373 1.87106 37.5629 1.64506 37.4561 1.43394C37.2402 1.0096 36.8952 0.664669 36.4709 0.448704C36.2598 0.34234 36.034 0.267992 35.801 0.228103C35.5681 0.186203 35.3308 0.172387 35.0959 0.166045C34.9879 0.163302 34.8798 0.161641 34.7718 0.161062C34.6438 0.160156 34.5154 0.160156 34.3874 0.160156Z" fill="black"/>
<path d="M34.3873 0.959961L34.766 0.96064C34.8683 0.96132 34.9709 0.962452 35.074 0.96517C35.2536 0.970153 35.4633 0.979892 35.659 1.015C35.8289 1.04557 35.9716 1.092 36.1084 1.16176C36.3821 1.30095 36.6045 1.5236 36.7434 1.79752C36.8128 1.93341 36.859 2.0752 36.8895 2.24665C36.9244 2.44007 36.9342 2.65048 36.9389 2.83099C36.9419 2.93291 36.9432 3.03483 36.9434 3.13902C36.9446 3.26518 36.9446 3.3911 36.9446 3.51748V20.8027C36.9446 20.9291 36.9446 21.055 36.9437 21.1837C36.9432 21.2856 36.9418 21.3875 36.9391 21.4895C36.9341 21.6697 36.9244 21.8802 36.8891 22.0758C36.8634 22.2315 36.8141 22.3823 36.743 22.5232C36.6038 22.7972 36.3811 23.0198 36.107 23.1589C35.9711 23.2282 35.8289 23.2747 35.6606 23.305C35.4611 23.3406 35.2423 23.3503 35.0776 23.3548C34.9741 23.3571 34.8711 23.3587 34.7653 23.3591C34.6396 23.36 34.5132 23.36 34.3873 23.36H3.60798C3.48341 23.36 3.35884 23.36 3.232 23.3591C3.13007 23.3587 3.02815 23.3573 2.92624 23.3551C2.75774 23.3505 2.53895 23.3406 2.34099 23.3052C2.18448 23.2791 2.03283 23.2295 1.89119 23.158C1.75532 23.089 1.63131 22.9988 1.52382 22.8908C1.41599 22.7831 1.32593 22.659 1.25701 22.5232C1.18584 22.3815 1.13651 22.23 1.1107 22.0736C1.07537 21.8781 1.0654 21.6686 1.06087 21.4897C1.05831 21.3874 1.0568 21.2851 1.05634 21.1828L1.05566 20.8822V3.43821L1.05612 3.13811C1.05658 3.03565 1.05809 2.9332 1.06065 2.83077C1.06563 2.65139 1.07537 2.44188 1.11093 2.24484C1.13679 2.08876 1.18612 1.93748 1.25724 1.79616C1.32609 1.66072 1.41578 1.53706 1.5245 1.42857C1.63225 1.32065 1.75639 1.23045 1.89232 1.16131C2.03362 1.09032 2.18479 1.041 2.34077 1.015C2.53668 0.979892 2.74664 0.970153 2.92647 0.96517C3.02884 0.962452 3.13144 0.96132 3.23314 0.96064L3.61296 0.959961H34.3873Z" fill="white"/>
<path d="M10.1097 8.26187C10.4277 7.86438 10.6433 7.33054 10.5864 6.78516C10.1212 6.80826 9.55363 7.09205 9.22477 7.48999C8.92965 7.83063 8.66851 8.38667 8.73646 8.90918C9.25874 8.95448 9.78058 8.64826 10.1097 8.26187Z" fill="black"/>
<path d="M10.5804 9.01085C9.82162 8.96556 9.17703 9.44119 8.81487 9.44119C8.45249 9.44119 7.89782 9.0335 7.29784 9.0446C6.51713 9.05593 5.79282 9.49758 5.39646 10.1997C4.58155 11.6039 5.1813 13.6876 5.97401 14.8314C6.35882 15.3976 6.82267 16.0205 7.43374 15.9981C8.01129 15.9754 8.23755 15.6244 8.93922 15.6244C9.64066 15.6244 9.8445 15.9981 10.4558 15.9867C11.0895 15.9754 11.4859 15.4205 11.8707 14.8543C12.3123 14.2088 12.4928 13.586 12.5042 13.552C12.4928 13.5407 11.282 13.0761 11.2707 11.6832C11.2594 10.5168 12.2215 9.96189 12.2668 9.92769C11.7235 9.1241 10.8746 9.0335 10.5801 9.01085" fill="black"/>
<path d="M18.1419 7.43262C19.7903 7.43262 20.9384 8.56892 20.9384 10.2232C20.9384 11.8834 19.7668 13.0256 18.1007 13.0256H16.2757V15.9283H14.957V7.43262H18.1419ZM16.2757 11.9187H17.7886C18.9369 11.9187 19.5901 11.3006 19.5901 10.2291C19.5901 9.15779 18.9367 8.54536 17.7945 8.54536H16.2757V11.9187Z" fill="black"/>
<path d="M21.2656 14.1677C21.2656 13.0785 22.0957 12.4545 23.6263 12.3603L25.2688 12.2602V11.7891C25.2688 11.1006 24.8156 10.7237 24.0091 10.7237C23.3437 10.7237 22.8608 11.065 22.7611 11.5889H21.5716C21.6072 10.4881 22.6431 9.6875 24.0444 9.6875C25.5515 9.6875 26.5347 10.4764 26.5347 11.701V15.928H25.3162V14.9095H25.2867C24.9393 15.5747 24.1738 15.9925 23.3437 15.9925C22.1193 15.9925 21.2656 15.2628 21.2656 14.1677ZM25.2688 13.6203V13.1433L23.803 13.2375C22.9786 13.2905 22.5491 13.5965 22.5491 14.1321C22.5491 14.6503 22.9965 14.986 23.697 14.986C24.5916 14.986 25.2688 14.4148 25.2688 13.6203Z" fill="black"/>
<path d="M27.6554 18.2V17.1817C27.7378 17.1932 27.9378 17.205 28.0438 17.205C28.6266 17.205 28.9564 16.9581 29.1566 16.3219L29.2743 15.9453L27.043 9.76367H28.4205L29.9749 14.7795H30.0043L31.5585 9.76367H32.9009L30.5871 16.2571C30.0571 17.7468 29.4508 18.2355 28.1675 18.2355C28.0674 18.2355 27.7435 18.2237 27.6554 18.2Z" fill="black"/>
</g>
<defs>
<clipPath id="clip0_643_1484">
<rect width="38" height="24" fill="white" transform="translate(0 0.160156)"/>
</clipPath>
</defs>
</svg>
