<svg width="38" height="25" viewBox="0 0 38 25" fill="none" xmlns="http://www.w3.org/2000/svg">
<g clip-path="url(#clip0_643_1495)">
<path opacity="0.07" d="M35 0.160156H3C1.3 0.160156 0 1.46016 0 3.16016V21.1602C0 22.8602 1.4 24.1602 3 24.1602H35C36.7 24.1602 38 22.8602 38 21.1602V3.16016C38 1.46016 36.6 0.160156 35 0.160156Z" fill="black"/>
<path d="M35 1.16016C36.1 1.16016 37 2.06016 37 3.16016V21.1602C37 22.2602 36.1 23.1602 35 23.1602H3C1.9 23.1602 1 22.2602 1 21.1602V3.16016C1 2.06016 1.9 1.16016 3 1.16016H35Z" fill="white"/>
<path d="M18.0932 12.1359V15.3359H17.0752V7.4359H19.7662C20.0886 7.43044 20.409 7.48877 20.7088 7.60752C21.0086 7.72628 21.282 7.90313 21.5132 8.1279C21.7322 8.33229 21.9088 8.57785 22.0329 8.85054C22.157 9.12322 22.2261 9.41769 22.2363 9.7171C22.2466 10.0165 22.1977 10.315 22.0925 10.5955C21.9872 10.876 21.8278 11.133 21.6232 11.3519L21.5132 11.4679C21.0432 11.9149 20.4152 12.1579 19.7662 12.1419L18.0932 12.1359ZM18.0932 8.4039V11.1919H19.7912C20.1682 11.2039 20.5322 11.0569 20.7962 10.7879C20.985 10.5911 21.1118 10.3431 21.1608 10.0747C21.2098 9.8064 21.1788 9.52959 21.0717 9.27873C20.9646 9.02787 20.7861 8.81403 20.5585 8.66382C20.3308 8.51361 20.064 8.43365 19.7912 8.4339L18.0932 8.4039ZM24.5772 9.7519C25.2272 9.7219 25.8632 9.9399 26.3552 10.3649C26.8002 10.7949 27.0372 11.3949 27.0052 12.0139V15.3479H26.0362V14.5819H25.9872C25.8134 14.8692 25.5677 15.1062 25.2743 15.2695C24.9809 15.4328 24.6499 15.5167 24.3142 15.5129C23.7661 15.5306 23.2316 15.3402 22.8182 14.9799C22.6223 14.8201 22.4654 14.6179 22.3592 14.3885C22.253 14.1591 22.2003 13.9086 22.2052 13.6559C22.1937 13.4005 22.2433 13.146 22.3499 12.9136C22.4565 12.6813 22.6171 12.4777 22.8182 12.3199C23.3116 11.9651 23.9088 11.7839 24.5162 11.8049C25.0332 11.7849 25.5462 11.8979 26.0062 12.1359V11.9279C26.0096 11.7559 25.9738 11.5854 25.9015 11.4293C25.8293 11.2732 25.7225 11.1356 25.5892 11.0269C25.3215 10.7836 24.9709 10.6519 24.6092 10.6589C24.3465 10.6564 24.0875 10.721 23.8568 10.8464C23.626 10.9719 23.431 11.1541 23.2902 11.3759L22.3952 10.8119C22.6382 10.4637 22.9663 10.1835 23.3483 9.99795C23.7302 9.8124 24.1533 9.7277 24.5772 9.7519ZM23.2902 13.6799C23.2878 13.8094 23.3173 13.9375 23.376 14.053C23.4348 14.1684 23.5211 14.2676 23.6272 14.3419C23.8502 14.5179 24.1272 14.6109 24.4122 14.6049C24.8412 14.6039 25.2522 14.4349 25.5582 14.1329C25.8632 13.8469 26.0362 13.4479 26.0362 13.0299C25.6512 12.7562 25.1835 12.6241 24.7122 12.6559C24.3463 12.6415 23.9854 12.7445 23.6822 12.9499C23.5621 13.0302 23.4636 13.1388 23.3953 13.2661C23.3269 13.3933 23.2908 13.5354 23.2902 13.6799ZM32.5762 9.9299L29.1862 17.7199H28.1382L29.4192 14.9919L27.1952 9.9299H28.2982L29.9102 13.8149L31.4792 9.9299H32.5762Z" fill="black"/>
<path d="M13.986 11.4444C13.986 11.1364 13.962 10.8284 13.913 10.5244H9.62305V12.2714H12.074C12.0241 12.5491 11.9187 12.8138 11.7641 13.0497C11.6094 13.2856 11.4087 13.4879 11.174 13.6444V14.7784H12.638C13.0832 14.3477 13.4331 13.8285 13.6653 13.2542C13.8975 12.68 14.0067 12.0635 13.986 11.4444Z" fill="black"/>
<path d="M9.62915 15.8811C10.7355 15.9115 11.8118 15.5192 12.6391 14.7841L11.1731 13.6441C10.8209 13.8699 10.4218 14.0125 10.0062 14.0609C9.59055 14.1093 9.16936 14.0623 8.77463 13.9235C8.3799 13.7846 8.02204 13.5576 7.72824 13.2597C7.43444 12.9617 7.21245 12.6007 7.07915 12.2041H5.57715V13.3741C5.953 14.1271 6.5312 14.7606 7.2469 15.2034C7.96261 15.6462 8.78753 15.8809 9.62915 15.8811Z" fill="black"/>
<path d="M7.07893 12.2097C6.88872 11.647 6.88872 11.0374 7.07893 10.4747V9.30469H5.57693C5.25672 9.93614 5.08984 10.6342 5.08984 11.3422C5.08984 12.0502 5.25672 12.7482 5.57693 13.3797L7.07893 12.2097Z" fill="#121212"/>
<path d="M9.62915 8.60034C10.2762 8.58853 10.9016 8.83295 11.3691 9.28034L12.6691 7.98734C11.8402 7.20936 10.7408 6.785 9.60415 6.80434C8.76752 6.80854 7.94839 7.04435 7.23758 7.48562C6.52677 7.9269 5.95206 8.5564 5.57715 9.30434L7.07915 10.4753C7.25477 9.93543 7.59524 9.46415 8.05266 9.12782C8.51007 8.79148 9.06142 8.607 9.62915 8.60034Z" fill="black"/>
</g>
<defs>
<clipPath id="clip0_643_1495">
<rect width="38" height="24" fill="white" transform="translate(0 0.160156)"/>
</clipPath>
</defs>
</svg>
