<svg width="38" height="25" viewBox="0 0 38 25" fill="none" xmlns="http://www.w3.org/2000/svg">
<g clip-path="url(#clip0_643_1478)">
<path opacity="0.07" d="M35 0.160156H3C1.3 0.160156 0 1.46016 0 3.16016V21.1602C0 22.8602 1.4 24.1602 3 24.1602H35C36.7 24.1602 38 22.8602 38 21.1602V3.16016C38 1.46016 36.6 0.160156 35 0.160156Z" fill="black"/>
<path d="M35 1.16016C36.1 1.16016 37 2.06016 37 3.16016V21.1602C37 22.2602 36.1 23.1602 35 23.1602H3C1.9 23.1602 1 22.2602 1 21.1602V3.16016C1 2.06016 1.9 1.16016 3 1.16016H35Z" fill="white"/>
<path d="M15 19.1602C18.866 19.1602 22 16.0261 22 12.1602C22 8.29416 18.866 5.16016 15 5.16016C11.134 5.16016 8 8.29416 8 12.1602C8 16.0261 11.134 19.1602 15 19.1602Z" fill="black"/>
<path d="M23 19.1602C26.866 19.1602 30 16.0261 30 12.1602C30 8.29416 26.866 5.16016 23 5.16016C19.134 5.16016 16 8.29416 16 12.1602C16 16.0261 19.134 19.1602 23 19.1602Z" fill="#CBCBCB"/>
<path d="M22 12.16C22 9.75996 20.8 7.65996 19 6.45996C17.2 7.75996 16 9.85996 16 12.16C16 14.46 17.2 16.66 19 17.86C20.8 16.66 22 14.56 22 12.16Z" fill="#999999"/>
</g>
<defs>
<clipPath id="clip0_643_1478">
<rect width="38" height="24" fill="white" transform="translate(0 0.160156)"/>
</clipPath>
</defs>
</svg>
