<svg width="38" height="25" viewBox="0 0 38 25" fill="none" xmlns="http://www.w3.org/2000/svg">
<g clip-path="url(#clip0_643_1470)">
<path opacity="0.07" d="M35 0.160156H3C1.3 0.160156 0 1.46016 0 3.16016V21.1602C0 22.8602 1.4 24.1602 3 24.1602H35C36.7 24.1602 38 22.8602 38 21.1602V3.16016C38 1.46016 36.6 0.160156 35 0.160156Z" fill="black"/>
<path d="M35 1.16016C36.1 1.16016 37 2.06016 37 3.16016V21.1602C37 22.2602 36.1 23.1602 35 23.1602H3C1.9 23.1602 1 22.2602 1 21.1602V3.16016C1 2.06016 1.9 1.16016 3 1.16016H35Z" fill="black"/>
<path d="M21.3821 9.87272C21.3821 11.5407 20.2051 12.7307 18.5611 12.7307H17.0121C16.9865 12.7311 16.9616 12.7389 16.9403 12.753C16.919 12.7672 16.9023 12.7873 16.8921 12.8107C16.8856 12.8262 16.8822 12.8429 16.8821 12.8597V15.0517C16.8821 15.0687 16.8787 15.0856 16.8722 15.1013C16.8656 15.117 16.8561 15.1313 16.844 15.1433C16.8319 15.1553 16.8175 15.1648 16.8018 15.1712C16.786 15.1776 16.7691 15.1809 16.7521 15.1807H15.6681C15.6336 15.1807 15.6006 15.167 15.5762 15.1426C15.5518 15.1183 15.5381 15.0852 15.5381 15.0507V7.14572C15.5377 7.11997 15.5451 7.09469 15.5594 7.07326C15.5737 7.05183 15.5942 7.03525 15.6181 7.02572C15.6339 7.01909 15.6509 7.01569 15.6681 7.01572H18.5681C20.2051 7.01572 21.3821 8.20572 21.3821 9.87372V9.87272ZM20.0301 9.87272C20.0301 8.91472 19.3721 8.21472 18.4801 8.21472H17.0121C16.995 8.21472 16.9781 8.21808 16.9624 8.22462C16.9466 8.23115 16.9323 8.24072 16.9202 8.2528C16.9081 8.26487 16.8985 8.2792 16.892 8.29497C16.8855 8.31074 16.8821 8.32765 16.8821 8.34472V11.3947C16.8819 11.4118 16.8852 11.4288 16.8917 11.4446C16.8982 11.4604 16.9079 11.4747 16.9201 11.4867C16.9322 11.4988 16.9465 11.5084 16.9623 11.515C16.9781 11.5215 16.995 11.5248 17.0121 11.5247H18.4801C19.3721 11.5297 20.0301 10.8297 20.0301 9.87272ZM21.7041 13.6637C21.6927 13.4075 21.746 13.1526 21.859 12.9224C21.9721 12.6922 22.1413 12.4943 22.3511 12.3467C22.7741 12.0307 23.4351 11.8667 24.4061 11.8327L25.4391 11.7967V11.4937C25.4391 10.8867 25.0291 10.6307 24.3711 10.6307C23.7131 10.6307 23.2961 10.8617 23.2011 11.2407C23.193 11.2673 23.1764 11.2906 23.1538 11.3068C23.1312 11.3231 23.1039 11.3315 23.0761 11.3307H22.0541C22.026 11.3311 21.9985 11.3223 21.9758 11.3057C21.953 11.2891 21.9363 11.2656 21.9281 11.2387C21.9227 11.2209 21.9213 11.2021 21.9241 11.1837C22.0761 10.2857 22.8281 9.60372 24.4181 9.60372C26.1101 9.60372 26.7211 10.3867 26.7211 11.8797V15.0517C26.721 15.0689 26.7174 15.0858 26.7107 15.1016C26.704 15.1174 26.6942 15.1317 26.682 15.1437C26.6697 15.1557 26.6552 15.1651 26.6392 15.1715C26.6233 15.1779 26.6063 15.181 26.5891 15.1807H25.5591C25.5246 15.1807 25.4916 15.167 25.4672 15.1426C25.4428 15.1183 25.4291 15.0852 25.4291 15.0507V14.8147C25.4294 14.7951 25.4238 14.7759 25.4129 14.7597C25.402 14.7434 25.3863 14.7309 25.3681 14.7237C25.3501 14.7166 25.3303 14.7149 25.3113 14.7188C25.2923 14.7227 25.2749 14.7321 25.2611 14.7457C24.9511 15.0797 24.4531 15.3207 23.6541 15.3207C22.4791 15.3207 21.7041 14.7137 21.7041 13.6637ZM25.4391 12.9767V12.7307L24.1001 12.8007C23.3951 12.8367 22.9851 13.1267 22.9851 13.6167C22.9851 14.0607 23.3611 14.3067 24.0191 14.3067C24.9121 14.3067 25.4391 13.8267 25.4391 12.9767ZM27.7551 17.5767V16.6577C27.7554 16.6385 27.7599 16.6195 27.7684 16.6022C27.7768 16.5849 27.789 16.5697 27.8041 16.5577C27.8191 16.5456 27.8365 16.5369 27.8551 16.5323C27.8738 16.5276 27.8932 16.5271 27.9121 16.5307C28.0701 16.5597 28.2301 16.5747 28.3911 16.5747C28.6669 16.5898 28.9397 16.5116 29.1656 16.3527C29.3914 16.1938 29.5572 15.9634 29.6361 15.6987L29.7031 15.4877C29.7131 15.4592 29.7131 15.4282 29.7031 15.3997L27.5581 9.92872C27.5457 9.89869 27.5449 9.8651 27.556 9.83456C27.5671 9.80402 27.5893 9.77875 27.6181 9.76372C27.6372 9.75365 27.6585 9.74849 27.6801 9.74872H28.7201C28.7468 9.74879 28.7728 9.75695 28.7948 9.77213C28.8168 9.7873 28.8336 9.80878 28.8431 9.83372L30.2991 13.6927C30.3081 13.7186 30.325 13.7411 30.3474 13.7568C30.3699 13.7726 30.3967 13.781 30.4241 13.7807C30.4515 13.7807 30.4781 13.7722 30.5005 13.7565C30.5229 13.7407 30.5398 13.7185 30.5491 13.6927L31.8141 9.84472C31.8227 9.81819 31.8396 9.79512 31.8622 9.77891C31.8849 9.76271 31.9122 9.75423 31.9401 9.75472H33.0161C33.0484 9.75491 33.0795 9.76675 33.1038 9.78806C33.128 9.80937 33.1438 9.83873 33.1481 9.87072C33.1505 9.89206 33.1478 9.91366 33.1401 9.93372L30.8451 16.0097C30.3171 17.4227 29.4121 17.7827 28.4151 17.7827C28.2259 17.7879 28.0369 17.7657 27.8541 17.7167C27.8235 17.7092 27.7965 17.6909 27.7782 17.6652C27.7598 17.6396 27.7513 17.6082 27.7541 17.5767H27.7551ZM8.5701 6.55972C7.2056 6.54952 5.88852 7.05983 4.8871 7.98672C4.84449 8.02547 4.81789 8.07875 4.81253 8.1361C4.80716 8.19345 4.82342 8.25073 4.8581 8.29672L5.4761 9.13572C5.49613 9.16401 5.52214 9.18754 5.55228 9.20464C5.58243 9.22175 5.61598 9.232 5.65053 9.23467C5.68509 9.23735 5.71981 9.23237 5.75223 9.22011C5.78465 9.20785 5.81397 9.18859 5.8381 9.16372C6.19803 8.80632 6.62547 8.52411 7.09554 8.33354C7.56561 8.14297 8.06891 8.04785 8.5761 8.05372C10.6961 8.05372 11.8031 9.63772 11.8031 11.2037C11.8031 12.9037 10.6401 14.1017 8.9681 14.1247C7.6761 14.1247 6.7021 13.2747 6.7021 12.1507C6.70321 11.8665 6.7678 11.5861 6.89116 11.3301C7.01452 11.074 7.19353 10.8487 7.4151 10.6707C7.46228 10.632 7.49223 10.5762 7.49841 10.5155C7.5046 10.4548 7.48651 10.3941 7.4481 10.3467L6.7981 9.53172C6.77848 9.50666 6.75399 9.48583 6.72611 9.47049C6.69822 9.45514 6.66752 9.44559 6.63586 9.44241C6.60419 9.43924 6.5722 9.4425 6.54183 9.452C6.51145 9.46151 6.48331 9.47706 6.4591 9.49772C6.061 9.81706 5.73918 10.2212 5.5171 10.6807C5.29582 11.1392 5.18063 11.6416 5.1801 12.1507C5.1801 14.0857 6.8351 15.6027 8.9551 15.6147H8.9851C11.5021 15.5827 13.3221 13.7307 13.3221 11.1997C13.3221 8.95272 11.6551 6.55972 8.5701 6.55972Z" fill="white"/>
</g>
<rect x="0.5" y="0.660156" width="37" height="23" rx="3.5" stroke="white"/>
<defs>
<clipPath id="clip0_643_1470">
<rect y="0.160156" width="38" height="24" rx="4" fill="white"/>
</clipPath>
</defs>
</svg>
