<svg width="38" height="25" viewBox="0 0 38 25" fill="none" xmlns="http://www.w3.org/2000/svg">
<g clip-path="url(#clip0_643_1474)">
<path opacity="0.07" d="M35 0.160156H3C1.3 0.160156 0 1.46016 0 3.16016V21.1602C0 22.8602 1.4 24.1602 3 24.1602H35C36.7 24.1602 38 22.8602 38 21.1602V3.16016C38 1.46016 36.6 0.160156 35 0.160156Z" fill="black"/>
<path d="M35 1.16016C36.1 1.16016 37 2.06016 37 3.16016V21.1602C37 22.2602 36.1 23.1602 35 23.1602H3C1.9 23.1602 1 22.2602 1 21.1602V3.16016C1 2.06016 1.9 1.16016 3 1.16016H35Z" fill="white"/>
<path d="M28.3 10.2602H28C27.6 11.2602 27.3 11.7602 27 13.2602H28.9C28.6 11.7602 28.6 11.0602 28.3 10.2602ZM31.2 16.1602H29.5C29.4 16.1602 29.4 16.1602 29.3 16.0602L29.1 15.1602L29 14.9602H26.6C26.5 14.9602 26.4 14.9602 26.4 15.1602L26.1 16.0602C26.1 16.1602 26 16.1602 26 16.1602H23.9L24.1 15.6602L27 8.86016C27 8.36016 27.3 8.16016 27.8 8.16016H29.3C29.4 8.16016 29.5 8.16016 29.5 8.36016L30.9 14.8602C31 15.2602 31.1 15.5602 31.1 15.9602C31.2 16.0602 31.2 16.0602 31.2 16.1602ZM17.8 15.8602L18.2 14.0602C18.3 14.0602 18.4 14.1602 18.4 14.1602C19.1 14.4602 19.8 14.6602 20.5 14.5602C20.7 14.5602 21 14.4602 21.2 14.3602C21.7 14.1602 21.7 13.6602 21.3 13.2602C21.1 13.0602 20.8 12.9602 20.5 12.7602C20.1 12.5602 19.7 12.3602 19.4 12.0602C18.2 11.0602 18.6 9.66016 19.3 8.96016C19.9 8.56016 20.2 8.16016 21 8.16016C22.2 8.16016 23.5 8.16016 24.1 8.36016H24.2C24.1 8.96016 24 9.46016 23.8 10.0602C23.3 9.86016 22.8 9.66016 22.3 9.66016C22 9.66016 21.7 9.66016 21.4 9.76016C21.2 9.76016 21.1 9.86016 21 9.96016C20.8 10.1602 20.8 10.4602 21 10.6602L21.5 11.0602C21.9 11.2602 22.3 11.4602 22.6 11.6602C23.1 11.9602 23.6 12.4602 23.7 13.0602C23.9 13.9602 23.6 14.7602 22.8 15.3602C22.3 15.7602 22.1 15.9602 21.4 15.9602C20 15.9602 18.9 16.0602 18 15.7602C17.9 15.9602 17.9 15.9602 17.8 15.8602ZM14.3 16.1602C14.4 15.4602 14.4 15.4602 14.5 15.1602C15 12.9602 15.5 10.6602 15.9 8.46016C16 8.26016 16 8.16016 16.2 8.16016H18C17.8 9.36016 17.6 10.2602 17.3 11.3602C17 12.8602 16.7 14.3602 16.3 15.8602C16.3 16.0602 16.2 16.0602 16 16.0602L14.3 16.1602ZM5 8.36016C5 8.26016 5.2 8.16016 5.3 8.16016H8.7C9.2 8.16016 9.6 8.46016 9.7 8.96016L10.6 13.3602C10.6 13.4602 10.6 13.4602 10.7 13.5602C10.7 13.4602 10.8 13.4602 10.8 13.4602L12.9 8.36016C12.8 8.26016 12.9 8.16016 13 8.16016H15.1C15.1 8.26016 15.1 8.26016 15 8.36016L11.9 15.6602C11.8 15.8602 11.8 15.9602 11.7 16.0602C11.6 16.1602 11.4 16.0602 11.2 16.0602H9.7C9.6 16.0602 9.5 16.0602 9.5 15.8602L7.9 9.66016C7.7 9.46016 7.4 9.16016 7 9.06016C6.4 8.76016 5.3 8.56016 5.1 8.56016L5 8.36016Z" fill="black"/>
</g>
<defs>
<clipPath id="clip0_643_1474">
<rect width="38" height="24" fill="white" transform="translate(0 0.160156)"/>
</clipPath>
</defs>
</svg>
